<svg width="32" height="32" viewBox="0 0 32 32" fill="none" xmlns="http://www.w3.org/2000/svg">
<path d="M0 10C0 4.47715 4.47715 0 10 0H22C27.5228 0 32 4.47715 32 10V22C32 27.5228 27.5228 32 22 32H10C4.47715 32 0 27.5228 0 22V10Z" fill="#E5EFF9"/>
<mask id="mask0_2306_13238" style="mask-type:alpha" maskUnits="userSpaceOnUse" x="7" y="7" width="18" height="18">
<rect x="7" y="7" width="18" height="18" fill="#D9D9D9"/>
</mask>
<g mask="url(#mask0_2306_13238)">
<path d="M22.6204 16.5626H21.0338C20.8741 16.5626 20.7405 16.5088 20.6329 16.401C20.5251 16.2934 20.4713 16.1598 20.4713 16.0001C20.4713 15.8405 20.5251 15.7069 20.6329 15.5993C20.7405 15.4915 20.8741 15.4376 21.0338 15.4376H22.6204C22.78 15.4376 22.9136 15.4915 23.0213 15.5993C23.129 15.7069 23.1829 15.8405 23.1829 16.0001C23.1829 16.1598 23.129 16.2934 23.0213 16.401C22.9136 16.5088 22.78 16.5626 22.6204 16.5626ZM19.5006 19.5353C19.5967 19.4035 19.7196 19.3275 19.8692 19.3073C20.0187 19.2871 20.1593 19.3251 20.2911 19.4213L21.5559 20.3717C21.6877 20.468 21.7636 20.5908 21.7838 20.7403C21.804 20.8898 21.766 21.0305 21.6698 21.1622C21.5736 21.2938 21.4508 21.3698 21.3013 21.39C21.1518 21.4103 21.0112 21.3723 20.8794 21.276L19.6146 20.3256C19.4828 20.2295 19.4069 20.1066 19.3868 19.9571C19.3665 19.8076 19.4044 19.667 19.5006 19.5353ZM21.5271 11.5997L20.2622 12.5501C20.1304 12.6463 19.9898 12.6843 19.8403 12.6641C19.6908 12.6439 19.5679 12.5679 19.4717 12.4361C19.3756 12.3045 19.3376 12.1639 19.3579 12.0143C19.378 11.8648 19.4539 11.742 19.5857 11.6458L20.8506 10.6954C20.9823 10.5993 21.1229 10.5613 21.2724 10.5814C21.4219 10.6016 21.5448 10.6776 21.6411 10.8092C21.7372 10.941 21.7751 11.0816 21.7549 11.2311C21.7348 11.3807 21.6588 11.5036 21.5271 11.5997ZM10.9376 17.9329H10.1732C9.7992 17.9329 9.47976 17.8004 9.21488 17.5354C8.94988 17.2705 8.81738 16.9511 8.81738 16.5771V15.4232C8.81738 15.0492 8.94988 14.7298 9.21488 14.4649C9.47976 14.1999 9.7992 14.0674 10.1732 14.0674H13.0723L15.4044 12.6728C15.6304 12.5371 15.8583 12.536 16.0881 12.6692C16.3179 12.8023 16.4329 12.9982 16.4329 13.2568V18.7435C16.4329 19.0021 16.3179 19.198 16.0881 19.3311C15.8583 19.4643 15.6304 19.4631 15.4044 19.3275L13.0723 17.9329H12.0626V20.2982C12.0626 20.4578 12.0088 20.5915 11.901 20.6991C11.7934 20.8068 11.6598 20.8607 11.5001 20.8607C11.3405 20.8607 11.2069 20.8068 11.0993 20.6991C10.9915 20.5915 10.9376 20.4578 10.9376 20.2982V17.9329ZM15.3079 17.9387V14.0616L13.3838 15.1924H10.1732C10.1156 15.1924 10.0627 15.2165 10.0146 15.2646C9.96645 15.3127 9.94238 15.3656 9.94238 15.4232V16.5771C9.94238 16.6347 9.96645 16.6876 10.0146 16.7357C10.0627 16.7838 10.1156 16.8079 10.1732 16.8079H13.3838L15.3079 17.9387ZM17.4713 18.3396V13.6607C17.7655 13.9271 18.0025 14.2626 18.1823 14.6674C18.3621 15.0723 18.4521 15.5165 18.4521 16.0001C18.4521 16.4838 18.3621 16.928 18.1823 17.3329C18.0025 17.7376 17.7655 18.0732 17.4713 18.3396Z" fill="#003366"/>
</g>
</svg>
