<svg width="140" height="156" viewBox="0 0 140 156" fill="none" xmlns="http://www.w3.org/2000/svg">
<path d="M20 0.5H120C130.77 0.5 139.5 9.23045 139.5 20V136C139.5 146.77 130.77 155.5 120 155.5H20C9.23045 155.5 0.5 146.77 0.5 136V20L0.506836 19.4971C0.773602 8.95996 9.3986 0.5 20 0.5Z" fill="white"/>
<path d="M20 0.5H120C130.77 0.5 139.5 9.23045 139.5 20V136C139.5 146.77 130.77 155.5 120 155.5H20C9.23045 155.5 0.5 146.77 0.5 136V20L0.506836 19.4971C0.773602 8.95996 9.3986 0.5 20 0.5Z" stroke="#E5E7EB"/>
<path d="M34 32C34 27.5817 37.5817 24 42 24H98C102.418 24 106 27.5817 106 32V88C106 92.4183 102.418 96 98 96H42C37.5817 96 34 92.4183 34 88V32Z" fill="#F2F6FB"/>
<mask id="mask0_2309_20460" style="mask-type:alpha" maskUnits="userSpaceOnUse" x="50" y="40" width="40" height="40">
<rect x="50" y="40" width="40" height="40" fill="#D9D9D9"/>
</mask>
<g mask="url(#mask0_2309_20460)">
<path d="M65.0963 69.167C64.2543 69.167 63.5417 68.8753 62.9583 68.292C62.375 67.7087 62.0833 66.996 62.0833 66.1541V47.1799C62.0833 46.338 62.375 45.6253 62.9583 45.042C63.5417 44.4587 64.2543 44.167 65.0963 44.167H79.0704C79.9124 44.167 80.625 44.4587 81.2083 45.042C81.7917 45.6253 82.0833 46.338 82.0833 47.1799V66.1541C82.0833 66.996 81.7917 67.7087 81.2083 68.292C80.625 68.8753 79.9124 69.167 79.0704 69.167H65.0963ZM65.0963 66.667H79.0704C79.1988 66.667 79.3163 66.6135 79.4229 66.5066C79.5299 66.3999 79.5833 66.2824 79.5833 66.1541V47.1799C79.5833 47.0516 79.5299 46.9341 79.4229 46.8274C79.3163 46.7205 79.1988 46.667 79.0704 46.667H65.0963C64.9679 46.667 64.8504 46.7205 64.7438 46.8274C64.6368 46.9341 64.5833 47.0516 64.5833 47.1799V66.1541C64.5833 66.2824 64.6368 66.3999 64.7438 66.5066C64.8504 66.6135 64.9679 66.667 65.0963 66.667ZM59.2629 75.0003C58.421 75.0003 57.7083 74.7087 57.125 74.1253C56.5417 73.542 56.25 72.8294 56.25 71.9874V51.7632C56.25 51.4085 56.3697 51.1114 56.6092 50.872C56.8483 50.6328 57.1453 50.5132 57.5 50.5132C57.8547 50.5132 58.1518 50.6328 58.3913 50.872C58.6304 51.1114 58.75 51.4085 58.75 51.7632V71.9874C58.75 72.1157 58.8035 72.2332 58.9104 72.3399C59.0171 72.4469 59.1346 72.5003 59.2629 72.5003H74.4871C74.8418 72.5003 75.1389 72.6199 75.3783 72.8591C75.6175 73.0985 75.7371 73.3956 75.7371 73.7503C75.7371 74.105 75.6175 74.402 75.3783 74.6412C75.1389 74.8806 74.8418 75.0003 74.4871 75.0003H59.2629Z" fill="#003366"/>
</g>
<path d="M55.8689 115.642C55.2329 115.642 54.6629 115.756 54.1589 115.984C53.6549 116.2 53.2229 116.524 52.8629 116.956C52.5149 117.388 52.2449 117.91 52.0529 118.522C51.8729 119.134 51.7829 119.824 51.7829 120.592C51.7829 121.6 51.9329 122.476 52.2329 123.22C52.5329 123.952 52.9829 124.516 53.5829 124.912C54.1829 125.308 54.9389 125.506 55.8509 125.506C56.4029 125.506 56.9309 125.458 57.4349 125.362C57.9509 125.254 58.4729 125.116 59.0009 124.948V126.622C58.4969 126.814 57.9809 126.952 57.4529 127.036C56.9249 127.132 56.3129 127.18 55.6169 127.18C54.3089 127.18 53.2169 126.91 52.3409 126.37C51.4769 125.83 50.8289 125.062 50.3969 124.066C49.9649 123.07 49.7489 121.906 49.7489 120.574C49.7489 119.602 49.8809 118.714 50.1449 117.91C50.4209 117.094 50.8169 116.392 51.3329 115.804C51.8489 115.216 52.4849 114.766 53.2409 114.454C54.0089 114.13 54.8909 113.968 55.8869 113.968C56.5349 113.968 57.1709 114.04 57.7949 114.184C58.4189 114.316 58.9829 114.508 59.4869 114.76L58.7669 116.38C58.3469 116.188 57.8909 116.02 57.3989 115.876C56.9189 115.72 56.4089 115.642 55.8689 115.642ZM70.1036 122.14C70.1036 122.944 69.9956 123.658 69.7796 124.282C69.5636 124.906 69.2576 125.434 68.8616 125.866C68.4656 126.298 67.9856 126.628 67.4216 126.856C66.8576 127.072 66.2216 127.18 65.5136 127.18C64.8656 127.18 64.2656 127.072 63.7136 126.856C63.1616 126.628 62.6816 126.298 62.2736 125.866C61.8776 125.434 61.5656 124.906 61.3376 124.282C61.1096 123.658 60.9956 122.938 60.9956 122.122C60.9956 121.054 61.1756 120.148 61.5356 119.404C61.9076 118.66 62.4356 118.096 63.1196 117.712C63.8156 117.316 64.6316 117.118 65.5676 117.118C66.4556 117.118 67.2356 117.316 67.9076 117.712C68.5916 118.096 69.1256 118.66 69.5096 119.404C69.9056 120.148 70.1036 121.06 70.1036 122.14ZM62.9576 122.14C62.9576 122.86 63.0476 123.484 63.2276 124.012C63.4076 124.528 63.6896 124.924 64.0736 125.2C64.4576 125.476 64.9496 125.614 65.5496 125.614C66.1496 125.614 66.6416 125.476 67.0256 125.2C67.4096 124.924 67.6916 124.528 67.8716 124.012C68.0516 123.484 68.1416 122.86 68.1416 122.14C68.1416 121.396 68.0456 120.772 67.8536 120.268C67.6736 119.764 67.3916 119.38 67.0076 119.116C66.6356 118.84 66.1436 118.702 65.5316 118.702C64.6316 118.702 63.9776 119.002 63.5696 119.602C63.1616 120.202 62.9576 121.048 62.9576 122.14ZM77.3643 117.118C78.5283 117.118 79.4643 117.538 80.1723 118.378C80.8923 119.218 81.2523 120.472 81.2523 122.14C81.2523 123.232 81.0903 124.156 80.7663 124.912C80.4423 125.668 79.9863 126.238 79.3983 126.622C78.8103 126.994 78.1263 127.18 77.3463 127.18C76.8543 127.18 76.4223 127.12 76.0503 127C75.6783 126.868 75.3603 126.7 75.0963 126.496C74.8443 126.28 74.6223 126.052 74.4303 125.812H74.3043C74.3403 126.028 74.3703 126.286 74.3943 126.586C74.4183 126.874 74.4303 127.132 74.4303 127.36V131.32H72.5223V117.298H74.0703L74.3403 118.594H74.4303C74.6223 118.33 74.8503 118.084 75.1143 117.856C75.3783 117.628 75.6963 117.448 76.0683 117.316C76.4403 117.184 76.8723 117.118 77.3643 117.118ZM76.9143 118.684C76.3143 118.684 75.8343 118.804 75.4743 119.044C75.1143 119.272 74.8503 119.62 74.6823 120.088C74.5263 120.544 74.4423 121.126 74.4303 121.834V122.122C74.4303 122.866 74.5083 123.502 74.6643 124.03C74.8203 124.546 75.0783 124.942 75.4383 125.218C75.8103 125.482 76.3143 125.614 76.9503 125.614C77.4903 125.614 77.9283 125.47 78.2643 125.182C78.6123 124.882 78.8703 124.468 79.0383 123.94C79.2063 123.412 79.2903 122.8 79.2903 122.104C79.2903 121.048 79.0983 120.214 78.7143 119.602C78.3303 118.99 77.7303 118.684 76.9143 118.684ZM81.8569 117.298H83.9089L85.9249 122.806C86.0329 123.082 86.1289 123.352 86.2129 123.616C86.2969 123.88 86.3689 124.144 86.4289 124.408C86.5009 124.66 86.5549 124.912 86.5909 125.164H86.6629C86.7229 124.852 86.8189 124.486 86.9509 124.066C87.0829 123.634 87.2209 123.208 87.3649 122.788L89.2729 117.298H91.3249L87.1669 128.314C86.9389 128.938 86.6569 129.472 86.3209 129.916C85.9849 130.372 85.5829 130.72 85.1149 130.96C84.6589 131.2 84.1189 131.32 83.4949 131.32C83.1949 131.32 82.9369 131.302 82.7209 131.266C82.5049 131.242 82.3189 131.212 82.1629 131.176V129.664C82.2949 129.688 82.4509 129.712 82.6309 129.736C82.8229 129.76 83.0209 129.772 83.2249 129.772C83.5969 129.772 83.9149 129.7 84.1789 129.556C84.4549 129.412 84.6829 129.208 84.8629 128.944C85.0549 128.68 85.2169 128.38 85.3489 128.044L85.7449 127L81.8569 117.298Z" fill="#003366"/>
</svg>
