<svg width="140" height="156" viewBox="0 0 140 156" fill="none" xmlns="http://www.w3.org/2000/svg">
<path d="M20 0.5H120C130.77 0.5 139.5 9.23045 139.5 20V136C139.5 146.77 130.77 155.5 120 155.5H20C9.23045 155.5 0.5 146.77 0.5 136V20L0.506836 19.4971C0.773602 8.95996 9.3986 0.5 20 0.5Z" fill="white"/>
<path d="M20 0.5H120C130.77 0.5 139.5 9.23045 139.5 20V136C139.5 146.77 130.77 155.5 120 155.5H20C9.23045 155.5 0.5 146.77 0.5 136V20L0.506836 19.4971C0.773602 8.95996 9.3986 0.5 20 0.5Z" stroke="#E5E7EB"/>
<path d="M34 32C34 27.5817 37.5817 24 42 24H98C102.418 24 106 27.5817 106 32V88C106 92.4183 102.418 96 98 96H42C37.5817 96 34 92.4183 34 88V32Z" fill="#F2F6FB"/>
<mask id="mask0_2309_20463" style="mask-type:alpha" maskUnits="userSpaceOnUse" x="50" y="40" width="40" height="40">
<rect x="50" y="40" width="40" height="40" fill="#D9D9D9"/>
</mask>
<g mask="url(#mask0_2309_20463)">
<path d="M58.8462 74.1663C58.0042 74.1663 57.2916 73.8747 56.7083 73.2913C56.1249 72.708 55.8333 71.9954 55.8333 71.1534V48.8459C55.8333 48.004 56.1249 47.2913 56.7083 46.708C57.2916 46.1247 58.0042 45.833 58.8462 45.833H81.1537C81.9956 45.833 82.7083 46.1247 83.2916 46.708C83.8749 47.2913 84.1666 48.004 84.1666 48.8459V71.1534C84.1666 71.9954 83.8749 72.708 83.2916 73.2913C82.7083 73.8747 81.9956 74.1663 81.1537 74.1663H58.8462ZM68.7499 64.503H58.3333V71.1534C58.3333 71.3031 58.3813 71.4261 58.4774 71.5222C58.5735 71.6183 58.6964 71.6663 58.8462 71.6663H68.7499V64.503ZM71.2499 64.503V71.6663H81.1537C81.3034 71.6663 81.4263 71.6183 81.5224 71.5222C81.6185 71.4261 81.6666 71.3031 81.6666 71.1534V64.503H71.2499ZM68.7499 62.003V54.8072H58.3333V62.003H68.7499ZM71.2499 62.003H81.6666V54.8072H71.2499V62.003ZM58.3333 52.3076H81.6666V48.8459C81.6666 48.6962 81.6185 48.5733 81.5224 48.4772C81.4263 48.3811 81.3034 48.333 81.1537 48.333H58.8462C58.6964 48.333 58.5735 48.3811 58.4774 48.4772C58.3813 48.5733 58.3333 48.6962 58.3333 48.8459V52.3076Z" fill="#003366"/>
</g>
<path d="M57.2106 127H49.9746V114.148H57.2106V115.804H51.9186V119.476H56.8866V121.114H51.9186V125.326H57.2106V127ZM61.9922 122.05L58.6982 117.298H60.8762L63.1802 120.79L65.4842 117.298H67.6442L64.3502 122.05L67.8062 127H65.6462L63.1802 123.292L60.6962 127H58.5362L61.9922 122.05ZM73.1061 127.18C72.2181 127.18 71.4381 127.006 70.7661 126.658C70.0941 126.31 69.5721 125.77 69.2001 125.038C68.8281 124.294 68.6421 123.352 68.6421 122.212C68.6421 121.012 68.8401 120.04 69.2361 119.296C69.6441 118.552 70.1901 118.006 70.8741 117.658C71.5701 117.298 72.3621 117.118 73.2501 117.118C73.7901 117.118 74.2941 117.178 74.7621 117.298C75.2421 117.406 75.6381 117.532 75.9501 117.676L75.3741 119.224C75.0381 119.092 74.6781 118.978 74.2941 118.882C73.9221 118.786 73.5681 118.738 73.2321 118.738C72.6321 118.738 72.1341 118.87 71.7381 119.134C71.3541 119.386 71.0661 119.77 70.8741 120.286C70.6941 120.79 70.6041 121.426 70.6041 122.194C70.6041 122.926 70.7001 123.544 70.8921 124.048C71.0841 124.552 71.3661 124.936 71.7381 125.2C72.1221 125.452 72.5961 125.578 73.1601 125.578C73.7001 125.578 74.1741 125.518 74.5821 125.398C74.9901 125.278 75.3741 125.122 75.7341 124.93V126.586C75.3861 126.79 75.0081 126.94 74.6001 127.036C74.1921 127.132 73.6941 127.18 73.1061 127.18ZM81.8403 117.118C82.6923 117.118 83.4243 117.298 84.0363 117.658C84.6483 118.006 85.1163 118.51 85.4403 119.17C85.7763 119.83 85.9443 120.61 85.9443 121.51V122.554H79.4283C79.4523 123.55 79.7103 124.312 80.2023 124.84C80.7063 125.368 81.4083 125.632 82.3083 125.632C82.9323 125.632 83.4843 125.578 83.9643 125.47C84.4563 125.35 84.9603 125.176 85.4763 124.948V126.532C84.9963 126.748 84.5043 126.91 84.0003 127.018C83.5083 127.126 82.9203 127.18 82.2363 127.18C81.3003 127.18 80.4723 126.994 79.7523 126.622C79.0323 126.25 78.4683 125.698 78.0603 124.966C77.6643 124.222 77.4663 123.31 77.4663 122.23C77.4663 121.138 77.6463 120.214 78.0063 119.458C78.3783 118.702 78.8883 118.126 79.5363 117.73C80.1963 117.322 80.9643 117.118 81.8403 117.118ZM81.8403 118.594C81.1563 118.594 80.6043 118.816 80.1843 119.26C79.7763 119.704 79.5363 120.334 79.4643 121.15H84.0363C84.0363 120.646 83.9583 120.202 83.8023 119.818C83.6463 119.434 83.4063 119.134 83.0823 118.918C82.7583 118.702 82.3443 118.594 81.8403 118.594ZM90.2331 127H88.3251V113.32H90.2331V127Z" fill="#003366"/>
</svg>
