<svg width="23" height="16" viewBox="0 0 23 16" fill="none" xmlns="http://www.w3.org/2000/svg">
<path d="M11.334 12.7059C12.584 12.7059 13.6465 12.2684 14.5215 11.3934C15.3965 10.5184 15.834 9.45587 15.834 8.20587C15.834 6.95587 15.3965 5.89337 14.5215 5.01837C13.6465 4.14337 12.584 3.70587 11.334 3.70587C10.084 3.70587 9.02148 4.14337 8.14648 5.01837C7.27148 5.89337 6.83398 6.95587 6.83398 8.20587C6.83398 9.45587 7.27148 10.5184 8.14648 11.3934C9.02148 12.2684 10.084 12.7059 11.334 12.7059ZM11.334 10.9059C10.584 10.9059 9.94648 10.6434 9.42148 10.1184C8.89649 9.59337 8.63398 8.95587 8.63398 8.20587C8.63398 7.45587 8.89649 6.81837 9.42148 6.29337C9.94648 5.76837 10.584 5.50587 11.334 5.50587C12.084 5.50587 12.7215 5.76837 13.2465 6.29337C13.7715 6.81837 14.034 7.45587 14.034 8.20587C14.034 8.95587 13.7715 9.59337 13.2465 10.1184C12.7215 10.6434 12.084 10.9059 11.334 10.9059ZM11.334 15.7059C8.90065 15.7059 6.68398 15.0267 4.68398 13.6684C2.68398 12.31 1.23398 10.4892 0.333984 8.20587C1.23398 5.92254 2.68398 4.10171 4.68398 2.74337C6.68398 1.38504 8.90065 0.705872 11.334 0.705872C13.7673 0.705872 15.984 1.38504 17.984 2.74337C19.984 4.10171 21.434 5.92254 22.334 8.20587C21.434 10.4892 19.984 12.31 17.984 13.6684C15.984 15.0267 13.7673 15.7059 11.334 15.7059Z" fill="#2B62DA"/>
</svg>
