<svg width="20" height="20" viewBox="0 0 20 20" fill="none" xmlns="http://www.w3.org/2000/svg">
<path d="M8.83326 19.3333C8.50271 19.3333 8.22563 19.2215 8.00201 18.9979C7.7784 18.7743 7.6666 18.4972 7.6666 18.1666V11.1666L0.899931 2.53329C0.608264 2.1444 0.564514 1.73607 0.768681 1.30829C0.972848 0.880515 1.32771 0.666626 1.83326 0.666626H18.1666C18.6722 0.666626 19.027 0.880515 19.2312 1.30829C19.4353 1.73607 19.3916 2.1444 19.0999 2.53329L12.3333 11.1666V18.1666C12.3333 18.4972 12.2215 18.7743 11.9978 18.9979C11.7742 19.2215 11.4972 19.3333 11.1666 19.3333H8.83326ZM9.99993 10.35L15.7749 2.99996H4.22493L9.99993 10.35Z" fill="#1C1B1F"/>
</svg>
