<svg width="36" height="36" viewBox="0 0 36 36" fill="none" xmlns="http://www.w3.org/2000/svg">
<mask id="mask0_268_3110" style="mask-type:alpha" maskUnits="userSpaceOnUse" x="0" y="0" width="36" height="36">
<rect width="36" height="36" fill="#D9D9D9"/>
</mask>
<g mask="url(#mask0_268_3110)">
<path d="M16.4996 30C16.0746 30 15.7184 29.8563 15.4309 29.5688C15.1434 29.2812 14.9996 28.925 14.9996 28.5V19.5L6.29963 8.4C5.92463 7.9 5.86838 7.375 6.13088 6.825C6.39338 6.275 6.84963 6 7.49963 6H28.4996C29.1496 6 29.6059 6.275 29.8684 6.825C30.1309 7.375 30.0746 7.9 29.6996 8.4L20.9996 19.5V28.5C20.9996 28.925 20.8559 29.2812 20.5684 29.5688C20.2809 29.8563 19.9246 30 19.4996 30H16.4996ZM17.9996 18.45L25.4246 9H10.5746L17.9996 18.45Z" fill="#1C1B1F"/>
</g>
</svg>
