<svg width="32" height="32" viewBox="0 0 32 32" fill="none" xmlns="http://www.w3.org/2000/svg">
<path d="M0 10C0 4.47715 4.47715 0 10 0H22C27.5228 0 32 4.47715 32 10V22C32 27.5228 27.5228 32 22 32H10C4.47715 32 0 27.5228 0 22V10Z" fill="#E5EFF9"/>
<mask id="mask0_2306_13252" style="mask-type:alpha" maskUnits="userSpaceOnUse" x="7" y="7" width="18" height="18">
<rect x="7" y="7" width="18" height="18" fill="#D9D9D9"/>
</mask>
<g mask="url(#mask0_2306_13252)">
<path d="M8.34863 21.4807V19.8132C8.34863 19.4267 8.44838 19.0818 8.64788 18.7784C8.84738 18.475 9.11382 18.239 9.4472 18.0704C10.1599 17.7218 10.8766 17.453 11.5973 17.264C12.318 17.0751 13.1101 16.9807 13.9734 16.9807C14.8369 16.9807 15.629 17.0751 16.3496 17.264C17.0704 17.453 17.7871 17.7218 18.4999 18.0704C18.8333 18.239 19.0997 18.475 19.2992 18.7784C19.4987 19.0818 19.5984 19.4267 19.5984 19.8132V21.4807H8.34863ZM21.0984 21.4807V19.721C21.0984 19.2287 20.9779 18.7595 20.7369 18.3134C20.4958 17.8674 20.1538 17.4847 19.7109 17.1654C20.2138 17.2404 20.6913 17.3564 21.1433 17.5135C21.5951 17.6708 22.0264 17.8566 22.437 18.071C22.8245 18.2777 23.1238 18.5214 23.3348 18.802C23.5458 19.0825 23.6513 19.3889 23.6513 19.721V21.4807H21.0984ZM13.9734 15.769C13.2516 15.769 12.6336 15.512 12.1196 14.998C11.6056 14.4839 11.3486 13.8659 11.3486 13.144C11.3486 12.4222 11.6056 11.8042 12.1196 11.2902C12.6336 10.7761 13.2516 10.519 13.9734 10.519C14.6953 10.519 15.3133 10.7761 15.8274 11.2902C16.3414 11.8042 16.5984 12.4222 16.5984 13.144C16.5984 13.8659 16.3414 14.4839 15.8274 14.998C15.3133 15.512 14.6953 15.769 13.9734 15.769ZM20.4493 13.144C20.4493 13.8659 20.1923 14.4839 19.6783 14.998C19.1643 15.512 18.5464 15.769 17.8245 15.769C17.7399 15.769 17.6322 15.7594 17.5014 15.7402C17.3706 15.7209 17.2629 15.6998 17.1784 15.6768C17.4741 15.3212 17.7014 14.9267 17.8603 14.4933C18.0191 14.0599 18.0984 13.6099 18.0984 13.1433C18.0984 12.6765 18.0174 12.2282 17.8554 11.7984C17.6934 11.3686 17.4678 10.973 17.1784 10.6115C17.286 10.573 17.3937 10.548 17.5014 10.5365C17.6091 10.5249 17.7168 10.519 17.8245 10.519C18.5464 10.519 19.1643 10.7761 19.6783 11.2902C20.1923 11.8042 20.4493 12.4222 20.4493 13.144ZM9.47345 20.3557H18.4734V19.8132C18.4734 19.6566 18.4343 19.5172 18.3559 19.3951C18.2776 19.273 18.1534 19.1662 17.9831 19.0749C17.3659 18.7566 16.7303 18.5155 16.0764 18.3515C15.4226 18.1876 14.7216 18.1057 13.9734 18.1057C13.2254 18.1057 12.5245 18.1876 11.8706 18.3515C11.2168 18.5155 10.5812 18.7566 9.96395 19.0749C9.7937 19.1662 9.66938 19.273 9.59101 19.3951C9.51263 19.5172 9.47345 19.6566 9.47345 19.8132V20.3557ZM13.9734 14.644C14.3859 14.644 14.7391 14.4972 15.0328 14.2034C15.3266 13.9097 15.4734 13.5565 15.4734 13.144C15.4734 12.7315 15.3266 12.3784 15.0328 12.0847C14.7391 11.7909 14.3859 11.644 13.9734 11.644C13.5609 11.644 13.2078 11.7909 12.9141 12.0847C12.6203 12.3784 12.4734 12.7315 12.4734 13.144C12.4734 13.5565 12.6203 13.9097 12.9141 14.2034C13.2078 14.4972 13.5609 14.644 13.9734 14.644Z" fill="#003366"/>
</g>
</svg>
