<svg width="10" height="13" viewBox="0 0 10 13" fill="none" xmlns="http://www.w3.org/2000/svg">
<path d="M1.20517 13C0.872722 13 0.588722 12.8823 0.353167 12.6468C0.117722 12.4113 0 12.1273 0 11.7948V5.5385C0 5.20606 0.117722 4.92206 0.353167 4.6865C0.588722 4.45106 0.872722 4.33333 1.20517 4.33333H2V3C2 2.16756 2.29189 1.45944 2.87567 0.875666C3.45944 0.291888 4.16756 0 5 0C5.83244 0 6.54056 0.291888 7.12433 0.875666C7.70811 1.45944 8 2.16756 8 3V4.33333H8.79483C9.12728 4.33333 9.41128 4.45106 9.64683 4.6865C9.88228 4.92206 10 5.20606 10 5.5385V11.7948C10 12.1273 9.88228 12.4113 9.64683 12.6468C9.41128 12.8823 9.12728 13 8.79483 13H1.20517ZM1.20517 12H8.79483C8.85472 12 8.90389 11.9808 8.94233 11.9423C8.98078 11.9039 9 11.8547 9 11.7948V5.5385C9 5.47861 8.98078 5.42945 8.94233 5.391C8.90389 5.35256 8.85472 5.33333 8.79483 5.33333H1.20517C1.14528 5.33333 1.09611 5.35256 1.05767 5.391C1.01922 5.42945 1 5.47861 1 5.5385V11.7948C1 11.8547 1.01922 11.9039 1.05767 11.9423C1.09611 11.9808 1.14528 12 1.20517 12ZM5 9.83333C5.32389 9.83333 5.59933 9.71989 5.82633 9.493C6.05322 9.266 6.16667 8.99056 6.16667 8.66667C6.16667 8.34278 6.05322 8.06733 5.82633 7.84033C5.59933 7.61345 5.32389 7.5 5 7.5C4.67611 7.5 4.40067 7.61345 4.17367 7.84033C3.94678 8.06733 3.83333 8.34278 3.83333 8.66667C3.83333 8.99056 3.94678 9.266 4.17367 9.493C4.40067 9.71989 4.67611 9.83333 5 9.83333ZM3 4.33333H7V3C7 2.44444 6.80556 1.97222 6.41667 1.58333C6.02778 1.19444 5.55556 1 5 1C4.44444 1 3.97222 1.19444 3.58333 1.58333C3.19444 1.97222 3 2.44444 3 3V4.33333Z" fill="#4B5563"/>
</svg>
