<svg width="48" height="48" viewBox="0 0 48 48" fill="none" xmlns="http://www.w3.org/2000/svg">
<rect x="0.5" y="0.5" width="47" height="47" rx="23.5" stroke="#990007"/>
<mask id="mask0_2229_6354" style="mask-type:alpha" maskUnits="userSpaceOnUse" x="12" y="12" width="24" height="24">
<rect x="12" y="12" width="24" height="24" fill="#D9D9D9"/>
</mask>
<g mask="url(#mask0_2229_6354)">
<path d="M17 31C16.7167 31 16.4792 30.9042 16.2875 30.7125C16.0958 30.5208 16 30.2833 16 30C16 29.7167 16.0958 29.4792 16.2875 29.2875C16.4792 29.0958 16.7167 29 17 29H18V22C18 20.6167 18.4167 19.3875 19.25 18.3125C20.0833 17.2375 21.1667 16.5333 22.5 16.2V15.5C22.5 15.0833 22.6458 14.7292 22.9375 14.4375C23.2292 14.1458 23.5833 14 24 14C24.4167 14 24.7708 14.1458 25.0625 14.4375C25.3542 14.7292 25.5 15.0833 25.5 15.5V16.2C26.8333 16.5333 27.9167 17.2375 28.75 18.3125C29.5833 19.3875 30 20.6167 30 22V29H31C31.2833 29 31.5208 29.0958 31.7125 29.2875C31.9042 29.4792 32 29.7167 32 30C32 30.2833 31.9042 30.5208 31.7125 30.7125C31.5208 30.9042 31.2833 31 31 31H17ZM24 34C23.45 34 22.9792 33.8042 22.5875 33.4125C22.1958 33.0208 22 32.55 22 32H26C26 32.55 25.8042 33.0208 25.4125 33.4125C25.0208 33.8042 24.55 34 24 34ZM20 29H28V22C28 20.9 27.6083 19.9583 26.825 19.175C26.0417 18.3917 25.1 18 24 18C22.9 18 21.9583 18.3917 21.175 19.175C20.3917 19.9583 20 20.9 20 22V29ZM24 25C24.2833 25 24.5208 24.9042 24.7125 24.7125C24.9042 24.5208 25 24.2833 25 24V21C25 20.7167 24.9042 20.4792 24.7125 20.2875C24.5208 20.0958 24.2833 20 24 20C23.7167 20 23.4792 20.0958 23.2875 20.2875C23.0958 20.4792 23 20.7167 23 21V24C23 24.2833 23.0958 24.5208 23.2875 24.7125C23.4792 24.9042 23.7167 25 24 25ZM24 28C24.2833 28 24.5208 27.9042 24.7125 27.7125C24.9042 27.5208 25 27.2833 25 27C25 26.7167 24.9042 26.4792 24.7125 26.2875C24.5208 26.0958 24.2833 26 24 26C23.7167 26 23.4792 26.0958 23.2875 26.2875C23.0958 26.4792 23 26.7167 23 27C23 27.2833 23.0958 27.5208 23.2875 27.7125C23.4792 27.9042 23.7167 28 24 28Z" fill="#990007"/>
</g>
</svg>
