<svg width="140" height="156" viewBox="0 0 140 156" fill="none" xmlns="http://www.w3.org/2000/svg">
<path d="M20 0.5H120C130.77 0.5 139.5 9.23045 139.5 20V136C139.5 146.77 130.77 155.5 120 155.5H20C9.23045 155.5 0.5 146.77 0.5 136V20L0.506836 19.4971C0.773602 8.95996 9.3986 0.5 20 0.5Z" fill="white"/>
<path d="M20 0.5H120C130.77 0.5 139.5 9.23045 139.5 20V136C139.5 146.77 130.77 155.5 120 155.5H20C9.23045 155.5 0.5 146.77 0.5 136V20L0.506836 19.4971C0.773602 8.95996 9.3986 0.5 20 0.5Z" stroke="#E5E7EB"/>
<path d="M34 32C34 27.5817 37.5817 24 42 24H98C102.418 24 106 27.5817 106 32V88C106 92.4183 102.418 96 98 96H42C37.5817 96 34 92.4183 34 88V32Z" fill="#F2F6FB"/>
<mask id="mask0_2309_20461" style="mask-type:alpha" maskUnits="userSpaceOnUse" x="50" y="40" width="40" height="40">
<rect x="50" y="40" width="40" height="40" fill="#D9D9D9"/>
</mask>
<g mask="url(#mask0_2309_20461)">
<path d="M66.1858 57.4041H68.0449C68.4635 57.4041 68.8139 57.2631 69.0962 56.9812C69.3781 56.6989 69.5191 56.3485 69.5191 55.9299V54.0707C69.5191 53.6521 69.3781 53.3017 69.0962 53.0195C68.8139 52.7375 68.4635 52.5966 68.0449 52.5966H65.4487C65.2478 52.5966 65.0748 52.6692 64.9295 52.8145C64.7842 52.9598 64.7116 53.1328 64.7116 53.3337V60.0003C64.7116 60.2012 64.7842 60.3742 64.9295 60.5195C65.0748 60.6648 65.2478 60.7374 65.4487 60.7374C65.6495 60.7374 65.8226 60.6648 65.9678 60.5195C66.1131 60.3742 66.1858 60.2012 66.1858 60.0003V57.4041ZM66.1858 55.9299V54.0707H68.0449V55.9299H66.1858ZM74.487 60.7374C74.9059 60.7374 75.2563 60.5964 75.5383 60.3145C75.8205 60.0323 75.9616 59.6819 75.9616 59.2632V54.0707C75.9616 53.6521 75.8205 53.3017 75.5383 53.0195C75.2563 52.7375 74.9059 52.5966 74.487 52.5966H71.9549C71.7541 52.5966 71.581 52.6692 71.4358 52.8145C71.2905 52.9598 71.2178 53.1328 71.2178 53.3337V60.0003C71.2178 60.2012 71.2905 60.3742 71.4358 60.5195C71.581 60.6648 71.7541 60.7374 71.9549 60.7374H74.487ZM72.692 59.2632V54.0707H74.487V59.2632H72.692ZM79.2949 57.4041H80.5449C80.7458 57.4041 80.9188 57.3314 81.0641 57.1862C81.2094 57.0409 81.282 56.8678 81.282 56.667C81.282 56.4662 81.2094 56.2931 81.0641 56.1478C80.9188 56.0025 80.7458 55.9299 80.5449 55.9299H79.2949V54.0707H80.5449C80.7458 54.0707 80.9188 53.9981 81.0641 53.8528C81.2094 53.7075 81.282 53.5345 81.282 53.3337C81.282 53.1328 81.2094 52.9598 81.0641 52.8145C80.9188 52.6692 80.7458 52.5966 80.5449 52.5966H78.5574C78.3566 52.5966 78.1835 52.6692 78.0383 52.8145C77.893 52.9598 77.8203 53.1328 77.8203 53.3337V60.0003C77.8203 60.2012 77.893 60.3742 78.0383 60.5195C78.1835 60.6648 78.3566 60.7374 78.5574 60.7374C78.7583 60.7374 78.9313 60.6648 79.0766 60.5195C79.2221 60.3742 79.2949 60.2012 79.2949 60.0003V57.4041ZM63.4295 69.167C62.5876 69.167 61.8749 68.8753 61.2916 68.292C60.7083 67.7087 60.4166 66.996 60.4166 66.1541V47.1799C60.4166 46.338 60.7083 45.6253 61.2916 45.042C61.8749 44.4587 62.5876 44.167 63.4295 44.167H82.4037C83.2456 44.167 83.9583 44.4587 84.5416 45.042C85.1249 45.6253 85.4166 46.338 85.4166 47.1799V66.1541C85.4166 66.996 85.1249 67.7087 84.5416 68.292C83.9583 68.8753 83.2456 69.167 82.4037 69.167H63.4295ZM63.4295 66.667H82.4037C82.532 66.667 82.6495 66.6135 82.7562 66.5066C82.8631 66.3999 82.9166 66.2824 82.9166 66.1541V47.1799C82.9166 47.0516 82.8631 46.9341 82.7562 46.8274C82.6495 46.7205 82.532 46.667 82.4037 46.667H63.4295C63.3012 46.667 63.1837 46.7205 63.077 46.8274C62.9701 46.9341 62.9166 47.0516 62.9166 47.1799V66.1541C62.9166 66.2824 62.9701 66.3999 63.077 66.5066C63.1837 66.6135 63.3012 66.667 63.4295 66.667ZM57.5962 75.0003C56.7542 75.0003 56.0416 74.7087 55.4583 74.1253C54.8749 73.542 54.5833 72.8294 54.5833 71.9874V51.7632C54.5833 51.4085 54.703 51.1114 54.9424 50.872C55.1816 50.6328 55.4785 50.5132 55.8333 50.5132C56.188 50.5132 56.4851 50.6328 56.7245 50.872C56.9637 51.1114 57.0833 51.4085 57.0833 51.7632V71.9874C57.0833 72.1157 57.1367 72.2332 57.2437 72.3399C57.3503 72.4469 57.4678 72.5003 57.5962 72.5003H77.8203C78.1751 72.5003 78.4721 72.6199 78.7116 72.8591C78.9508 73.0985 79.0703 73.3956 79.0703 73.7503C79.0703 74.105 78.9508 74.402 78.7116 74.6412C78.4721 74.8806 78.1751 75.0003 77.8203 75.0003H57.5962Z" fill="#003366"/>
</g>
<path d="M58.4438 114.148C60.1238 114.148 61.3478 114.49 62.1158 115.174C62.8838 115.846 63.2678 116.788 63.2678 118C63.2678 118.54 63.1778 119.056 62.9978 119.548C62.8298 120.04 62.5478 120.484 62.1518 120.88C61.7558 121.264 61.2278 121.57 60.5678 121.798C59.9198 122.014 59.1218 122.122 58.1738 122.122H56.7878V127H54.8438V114.148H58.4438ZM58.2998 115.786H56.7878V120.484H57.9578C58.6898 120.484 59.3018 120.406 59.7938 120.25C60.2858 120.082 60.6518 119.824 60.8918 119.476C61.1438 119.116 61.2698 118.648 61.2698 118.072C61.2698 117.304 61.0298 116.734 60.5498 116.362C60.0818 115.978 59.3318 115.786 58.2998 115.786ZM76.2693 120.448C76.2693 121.888 75.9993 123.094 75.4593 124.066C74.9193 125.038 74.1393 125.77 73.1193 126.262C72.1113 126.754 70.8933 127 69.4653 127H65.8653V114.148H69.8433C71.1513 114.148 72.2853 114.388 73.2453 114.868C74.2053 115.348 74.9493 116.056 75.4773 116.992C76.0053 117.916 76.2693 119.068 76.2693 120.448ZM74.2353 120.502C74.2353 119.422 74.0613 118.534 73.7133 117.838C73.3653 117.142 72.8493 116.626 72.1653 116.29C71.4933 115.954 70.6773 115.786 69.7173 115.786H67.8093V125.362H69.3753C70.9953 125.362 72.2073 124.954 73.0113 124.138C73.8273 123.322 74.2353 122.11 74.2353 120.502ZM80.9924 127H79.0664V114.148H86.3024V115.804H80.9924V119.998H85.9604V121.654H80.9924V127Z" fill="#003366"/>
</svg>
