<svg width="140" height="156" viewBox="0 0 140 156" fill="none" xmlns="http://www.w3.org/2000/svg">
<path d="M20 0.5H120C130.77 0.5 139.5 9.23045 139.5 20V136C139.5 146.77 130.77 155.5 120 155.5H20C9.23045 155.5 0.5 146.77 0.5 136V20L0.506836 19.4971C0.773602 8.95996 9.3986 0.5 20 0.5Z" fill="white"/>
<path d="M20 0.5H120C130.77 0.5 139.5 9.23045 139.5 20V136C139.5 146.77 130.77 155.5 120 155.5H20C9.23045 155.5 0.5 146.77 0.5 136V20L0.506836 19.4971C0.773602 8.95996 9.3986 0.5 20 0.5Z" stroke="#E5E7EB"/>
<path d="M34 32C34 27.5817 37.5817 24 42 24H98C102.418 24 106 27.5817 106 32V88C106 92.4183 102.418 96 98 96H42C37.5817 96 34 92.4183 34 88V32Z" fill="#F2F6FB"/>
<mask id="mask0_2309_20462" style="mask-type:alpha" maskUnits="userSpaceOnUse" x="50" y="40" width="40" height="40">
<rect x="50" y="40" width="40" height="40" fill="#D9D9D9"/>
</mask>
<g mask="url(#mask0_2309_20462)">
<path d="M63.8462 74.1671C63.0176 74.1671 62.3083 73.8721 61.7183 73.2821C61.1283 72.6921 60.8333 71.9828 60.8333 71.1542V67.5004H57.6604C56.8318 67.5004 56.1225 67.2054 55.5325 66.6154C54.9425 66.0254 54.6475 65.3161 54.6475 64.4875V58.0133C54.6475 56.8328 55.0508 55.8432 55.8575 55.0446C56.6641 54.246 57.6497 53.8467 58.8141 53.8467H81.1858C82.3664 53.8467 83.3559 54.246 84.1545 55.0446C84.9532 55.8432 85.3525 56.8328 85.3525 58.0133V64.4875C85.3525 65.3161 85.0575 66.0254 84.4675 66.6154C83.8775 67.2054 83.1682 67.5004 82.3396 67.5004H79.1666V71.1542C79.1666 71.9828 78.8716 72.6921 78.2816 73.2821C77.6916 73.8721 76.9823 74.1671 76.1537 74.1671H63.8462ZM57.6604 65.0004H60.8333C60.8547 64.1907 61.1572 63.4968 61.7408 62.9188C62.3247 62.3407 63.0265 62.0517 63.8462 62.0517H76.1537C76.9734 62.0517 77.6751 62.3407 78.2587 62.9188C78.8426 63.4968 79.1452 64.1907 79.1666 65.0004H82.3396C82.4893 65.0004 82.6122 64.9524 82.7083 64.8563C82.8044 64.7602 82.8525 64.6372 82.8525 64.4875V58.0133C82.8525 57.5411 82.6927 57.1453 82.3733 56.8258C82.0539 56.5064 81.658 56.3467 81.1858 56.3467H58.8141C58.3419 56.3467 57.9461 56.5064 57.6266 56.8258C57.3072 57.1453 57.1475 57.5411 57.1475 58.0133V64.4875C57.1475 64.6372 57.1955 64.7602 57.2916 64.8563C57.3877 64.9524 57.5107 65.0004 57.6604 65.0004ZM76.6666 53.8467V49.3596C76.6666 49.2099 76.6186 49.087 76.5225 48.9908C76.4264 48.8947 76.3034 48.8467 76.1537 48.8467H63.8462C63.6965 48.8467 63.5736 48.8947 63.4775 48.9908C63.3813 49.087 63.3333 49.2099 63.3333 49.3596V53.8467H60.8333V49.3596C60.8333 48.531 61.1283 47.8217 61.7183 47.2317C62.3083 46.6417 63.0176 46.3467 63.8462 46.3467H76.1537C76.9823 46.3467 77.6916 46.6417 78.2816 47.2317C78.8716 47.8217 79.1666 48.531 79.1666 49.3596V53.8467H76.6666ZM79.6795 60.5133C80.1518 60.5133 80.5476 60.3536 80.867 60.0342C81.1865 59.7147 81.3462 59.3189 81.3462 58.8467C81.3462 58.3745 81.1865 57.9786 80.867 57.6592C80.5476 57.3397 80.1518 57.18 79.6795 57.18C79.2073 57.18 78.8115 57.3397 78.492 57.6592C78.1726 57.9786 78.0129 58.3745 78.0129 58.8467C78.0129 59.3189 78.1726 59.7147 78.492 60.0342C78.8115 60.3536 79.2073 60.5133 79.6795 60.5133ZM76.6666 71.1542V65.0646C76.6666 64.9149 76.6186 64.792 76.5225 64.6959C76.4264 64.5997 76.3034 64.5517 76.1537 64.5517H63.8462C63.6965 64.5517 63.5736 64.5997 63.4775 64.6959C63.3813 64.792 63.3333 64.9149 63.3333 65.0646V71.1542C63.3333 71.3039 63.3813 71.4268 63.4775 71.5229C63.5736 71.619 63.6965 71.6671 63.8462 71.6671H76.1537C76.3034 71.6671 76.4264 71.619 76.5225 71.5229C76.6186 71.4268 76.6666 71.3039 76.6666 71.1542Z" fill="#003366"/>
</g>
<path d="M54.4096 114.148C56.0896 114.148 57.3136 114.49 58.0816 115.174C58.8496 115.846 59.2336 116.788 59.2336 118C59.2336 118.54 59.1436 119.056 58.9636 119.548C58.7956 120.04 58.5136 120.484 58.1176 120.88C57.7216 121.264 57.1936 121.57 56.5336 121.798C55.8856 122.014 55.0876 122.122 54.1396 122.122H52.7536V127H50.8096V114.148H54.4096ZM54.2656 115.786H52.7536V120.484H53.9236C54.6556 120.484 55.2676 120.406 55.7596 120.25C56.2516 120.082 56.6176 119.824 56.8576 119.476C57.1096 119.116 57.2356 118.648 57.2356 118.072C57.2356 117.304 56.9956 116.734 56.5156 116.362C56.0476 115.978 55.2976 115.786 54.2656 115.786ZM66.4031 117.118C66.5711 117.118 66.7571 117.13 66.9611 117.154C67.1651 117.166 67.3331 117.184 67.4651 117.208L67.2671 118.99C67.1351 118.954 66.9791 118.924 66.7991 118.9C66.6191 118.876 66.4511 118.864 66.2951 118.864C65.9351 118.864 65.5871 118.936 65.2511 119.08C64.9271 119.212 64.6331 119.41 64.3691 119.674C64.1051 119.926 63.8951 120.238 63.7391 120.61C63.5951 120.982 63.5231 121.408 63.5231 121.888V127H61.6151V117.298H63.1271L63.3791 119.026H63.4511C63.6551 118.678 63.9011 118.36 64.1891 118.072C64.4771 117.784 64.8071 117.556 65.1791 117.388C65.5511 117.208 65.9591 117.118 66.4031 117.118ZM71.1696 117.298V127H69.2616V117.298H71.1696ZM70.2336 113.608C70.5216 113.608 70.7736 113.692 70.9896 113.86C71.2056 114.028 71.3136 114.31 71.3136 114.706C71.3136 115.09 71.2056 115.372 70.9896 115.552C70.7736 115.72 70.5216 115.804 70.2336 115.804C69.9216 115.804 69.6576 115.72 69.4416 115.552C69.2376 115.372 69.1356 115.09 69.1356 114.706C69.1356 114.31 69.2376 114.028 69.4416 113.86C69.6576 113.692 69.9216 113.608 70.2336 113.608ZM79.0799 117.118C80.2079 117.118 81.0719 117.4 81.6719 117.964C82.2719 118.528 82.5719 119.434 82.5719 120.682V127H80.6819V120.952C80.6819 120.196 80.5199 119.632 80.1959 119.26C79.8839 118.876 79.3799 118.684 78.6839 118.684C77.6999 118.684 77.0159 118.978 76.6319 119.566C76.2599 120.154 76.0739 121 76.0739 122.104V127H74.1659V117.298H75.6779L75.9479 118.594H76.0559C76.2719 118.258 76.5359 117.982 76.8479 117.766C77.1599 117.55 77.5079 117.388 77.8919 117.28C78.2759 117.172 78.6719 117.118 79.0799 117.118ZM88.9958 125.632C89.2478 125.632 89.5058 125.608 89.7698 125.56C90.0338 125.512 90.2618 125.458 90.4538 125.398V126.838C90.2498 126.934 89.9738 127.012 89.6258 127.072C89.2778 127.144 88.9298 127.18 88.5818 127.18C88.0538 127.18 87.5678 127.09 87.1238 126.91C86.6918 126.73 86.3438 126.418 86.0798 125.974C85.8158 125.53 85.6838 124.912 85.6838 124.12V118.756H84.3338V117.892L85.7558 117.172L86.4218 115.12H87.5918V117.298H90.3638V118.756H87.5918V124.084C87.5918 124.612 87.7178 125.002 87.9698 125.254C88.2338 125.506 88.5758 125.632 88.9958 125.632Z" fill="#003366"/>
</svg>
