<svg width="32" height="32" viewBox="0 0 32 32" fill="none" xmlns="http://www.w3.org/2000/svg">
<path d="M0 10C0 4.47715 4.47715 0 10 0H22C27.5228 0 32 4.47715 32 10V22C32 27.5228 27.5228 32 22 32H10C4.47715 32 0 27.5228 0 22V10Z" fill="#E5EFF9"/>
<mask id="mask0_2306_13280" style="mask-type:alpha" maskUnits="userSpaceOnUse" x="7" y="7" width="18" height="18">
<rect x="7" y="7" width="18" height="18" fill="#D9D9D9"/>
</mask>
<g mask="url(#mask0_2306_13280)">
<path d="M16.0001 21.3336L14.8001 22.2465C14.6645 22.3494 14.5301 22.3525 14.397 22.2559C14.2638 22.1592 14.2237 22.0306 14.2766 21.87L14.7482 20.3758L13.5669 19.5379C13.4314 19.4475 13.3913 19.3232 13.4465 19.1651C13.5018 19.0069 13.6097 18.9277 13.7703 18.9277H15.2012L15.7404 17.1739L13.1357 15.6422C12.901 15.5047 12.7188 15.3199 12.5891 15.0877C12.4592 14.8555 12.3943 14.598 12.3943 14.3152V10.0721C12.3943 9.698 12.5268 9.3785 12.7918 9.11362C13.0567 8.84875 13.3761 8.71631 13.7501 8.71631H18.2501C18.6241 8.71631 18.9435 8.84875 19.2084 9.11362C19.4734 9.3785 19.6059 9.698 19.6059 10.0721V14.3152C19.6059 14.5931 19.5386 14.8458 19.404 15.0733C19.2694 15.3007 19.0847 15.4855 18.8501 15.6277L16.2598 17.1739L16.799 18.9277H18.2298C18.3905 18.9277 18.4984 19.0069 18.5537 19.1651C18.6089 19.3232 18.5688 19.4475 18.4333 19.5379L17.252 20.3758L17.7236 21.87C17.7765 22.0306 17.7364 22.1592 17.6032 22.2559C17.4701 22.3525 17.3357 22.3494 17.2001 22.2465L16.0001 21.3336ZM13.5193 10.0721V14.3152C13.5193 14.3874 13.5373 14.4535 13.5735 14.5136C13.6095 14.5737 13.6587 14.6231 13.7212 14.6616L15.4376 15.6769V9.84131H13.7501C13.6827 9.84131 13.6274 9.86293 13.5842 9.90618C13.5409 9.94943 13.5193 10.0047 13.5193 10.0721ZM18.2501 9.84131H16.5626V15.6769L18.279 14.6616C18.3415 14.6231 18.3907 14.5737 18.4267 14.5136C18.4628 14.4535 18.4809 14.3874 18.4809 14.3152V10.0721C18.4809 10.0047 18.4593 9.94943 18.416 9.90618C18.3728 9.86293 18.3175 9.84131 18.2501 9.84131Z" fill="#003366"/>
</g>
</svg>
