<svg width="144" height="144" viewBox="0 0 144 144" fill="none" xmlns="http://www.w3.org/2000/svg">
<circle opacity="0.08" cx="72" cy="72" r="56" fill="#27682A"/>
<g filter="url(#filter0_dd_2306_14297)">
<path d="M36 72C36 52.1178 52.1178 36 72 36C91.8823 36 108 52.1178 108 72C108 91.8823 91.8823 108 72 108C52.1178 108 36 91.8823 36 72Z" fill="white"/>
<mask id="mask0_2306_14297" style="mask-type:alpha" maskUnits="userSpaceOnUse" x="48" y="48" width="48" height="48">
<rect x="48" y="48" width="48" height="48" fill="#D9D9D9"/>
</mask>
<g mask="url(#mask0_2306_14297)">
<path d="M58.5425 85.3998L72.6425 80.3998L63.5425 71.2998L58.5425 85.3998ZM92.6845 62.5498C92.4485 62.7985 92.1722 62.9228 91.8555 62.9228C91.5389 62.9228 91.2627 62.805 91.027 62.5693L90.896 62.4383C90.3524 61.8947 89.6922 61.6228 88.9155 61.6228C88.1385 61.6228 87.4782 61.8947 86.9345 62.4383L76.8035 72.5693C76.5679 72.805 76.2917 72.926 75.975 72.9323C75.6584 72.939 75.3757 72.818 75.127 72.5693C74.8784 72.3203 74.754 72.0408 74.754 71.7308C74.754 71.4205 74.8784 71.141 75.127 70.8923L85.2575 60.7613C86.2602 59.759 87.473 59.2578 88.896 59.2578C90.319 59.2578 91.5319 59.759 92.5345 60.7613L92.6845 60.9113C92.9205 61.1473 93.0385 61.4205 93.0385 61.7308C93.0385 62.0408 92.9205 62.3138 92.6845 62.5498ZM67.7575 56.7998C68.0062 56.5512 68.2857 56.4268 68.596 56.4268C68.9064 56.4268 69.1859 56.5512 69.4345 56.7998L69.8575 57.2228C70.9242 58.2895 71.4575 59.569 71.4575 61.0613C71.4575 62.5537 70.9242 63.8332 69.8575 64.8998L69.496 65.2613C69.2604 65.4973 68.9842 65.6185 68.6675 65.6248C68.3509 65.6312 68.068 65.51 67.819 65.2613C67.5704 65.0127 67.446 64.7332 67.446 64.4228C67.446 64.1128 67.5704 63.8333 67.819 63.5843L68.181 63.2228C68.7757 62.6282 69.073 61.9077 69.073 61.0613C69.073 60.2153 68.7757 59.4948 68.181 58.8998L67.7575 58.4768C67.5219 58.2408 67.4007 57.9645 67.394 57.6478C67.3877 57.3312 67.5089 57.0485 67.7575 56.7998ZM75.473 53.3383C75.7217 53.0897 76.0012 52.9653 76.3115 52.9653C76.6219 52.9653 76.9014 53.0897 77.15 53.3383L79.2805 55.4693C80.2962 56.4847 80.804 57.7038 80.804 59.1268C80.804 60.5498 80.2962 61.769 79.2805 62.7843L73.15 68.9153C72.914 69.1513 72.6377 69.2725 72.321 69.2788C72.0044 69.2852 71.7217 69.164 71.473 68.9153C71.2244 68.6667 71.1 68.3872 71.1 68.0768C71.1 67.7665 71.2244 67.487 71.473 67.2383L77.604 61.1078C78.1474 60.5642 78.419 59.9038 78.419 59.1268C78.419 58.3498 78.1474 57.6895 77.604 57.1458L75.473 55.0153C75.237 54.7793 75.1159 54.503 75.1095 54.1863C75.1032 53.8697 75.2244 53.587 75.473 53.3383ZM89.7035 76.2228C89.4549 76.4715 89.1754 76.5958 88.865 76.5958C88.555 76.5958 88.2757 76.4715 88.027 76.2228L86.473 74.6693C85.8654 74.0613 85.1217 73.7573 84.242 73.7573C83.3627 73.7573 82.6192 74.0613 82.0115 74.6693L80.4575 76.2228C80.2215 76.4588 79.9452 76.58 79.6285 76.5863C79.3119 76.5927 79.0292 76.4715 78.7805 76.2228C78.5319 75.9742 78.4075 75.6947 78.4075 75.3843C78.4075 75.0743 78.5319 74.7948 78.7805 74.5458L80.3345 72.9923C81.4139 71.9127 82.7164 71.3728 84.242 71.3728C85.7677 71.3728 87.0704 71.9127 88.15 72.9923L89.7035 74.5458C89.9395 74.7818 90.0607 75.0582 90.067 75.3748C90.0734 75.6915 89.9522 75.9742 89.7035 76.2228ZM54.8615 86.7303L61.4115 68.5193C61.5655 68.1243 61.7982 67.823 62.1095 67.6153C62.4212 67.4077 62.7579 67.3038 63.1195 67.3038C63.3605 67.3038 63.5849 67.3442 63.7925 67.4248C64.0002 67.5058 64.1975 67.6398 64.3845 67.8268L76.1155 79.5573C76.3025 79.7447 76.4364 79.9422 76.517 80.1498C76.598 80.3575 76.6385 80.5818 76.6385 80.8228C76.6385 81.1845 76.5347 81.521 76.327 81.8323C76.1194 82.144 75.818 82.3767 75.423 82.5303L57.2115 89.0803C56.8502 89.2213 56.5022 89.2432 56.1675 89.1458C55.8329 89.0485 55.545 88.8793 55.304 88.6383C55.063 88.3973 54.8939 88.1095 54.7965 87.7748C54.6989 87.4402 54.7205 87.092 54.8615 86.7303Z" fill="#27682A"/>
</g>
</g>
<defs>
<filter id="filter0_dd_2306_14297" x="30" y="30" width="84" height="84" filterUnits="userSpaceOnUse" color-interpolation-filters="sRGB">
<feFlood flood-opacity="0" result="BackgroundImageFix"/>
<feColorMatrix in="SourceAlpha" type="matrix" values="0 0 0 0 0 0 0 0 0 0 0 0 0 0 0 0 0 0 127 0" result="hardAlpha"/>
<feOffset dy="2"/>
<feGaussianBlur stdDeviation="2"/>
<feColorMatrix type="matrix" values="0 0 0 0 0 0 0 0 0 0 0 0 0 0 0 0 0 0 0.08 0"/>
<feBlend mode="normal" in2="BackgroundImageFix" result="effect1_dropShadow_2306_14297"/>
<feColorMatrix in="SourceAlpha" type="matrix" values="0 0 0 0 0 0 0 0 0 0 0 0 0 0 0 0 0 0 127 0" result="hardAlpha"/>
<feOffset/>
<feGaussianBlur stdDeviation="3"/>
<feColorMatrix type="matrix" values="0 0 0 0 0 0 0 0 0 0 0 0 0 0 0 0 0 0 0.02 0"/>
<feBlend mode="normal" in2="effect1_dropShadow_2306_14297" result="effect2_dropShadow_2306_14297"/>
<feBlend mode="normal" in="SourceGraphic" in2="effect2_dropShadow_2306_14297" result="shape"/>
</filter>
</defs>
</svg>
