<svg width="32" height="32" viewBox="0 0 32 32" fill="none" xmlns="http://www.w3.org/2000/svg">
<path d="M0 10C0 4.47715 4.47715 0 10 0H22C27.5228 0 32 4.47715 32 10V22C32 27.5228 27.5228 32 22 32H10C4.47715 32 0 27.5228 0 22V10Z" fill="#E5EFF9"/>
<mask id="mask0_2876_23044" style="mask-type:alpha" maskUnits="userSpaceOnUse" x="7" y="7" width="18" height="18">
<rect x="7" y="7" width="18" height="18" fill="#D9D9D9"/>
</mask>
<g mask="url(#mask0_2876_23044)">
<path d="M17.4046 22.4515C17.4287 22.4611 17.4504 22.4659 17.4695 22.4659C17.4887 22.4659 17.5104 22.4611 17.5346 22.4515L21.9464 21.0856C21.9081 20.9154 21.8287 20.7849 21.7085 20.6941C21.5882 20.6032 21.4522 20.5578 21.3003 20.5578H17.6274C17.3001 20.5578 17.0221 20.5452 16.7932 20.5203C16.5643 20.4953 16.3292 20.4404 16.0878 20.3558L14.9109 19.9707C14.7596 19.9226 14.6509 19.8264 14.5848 19.6823C14.5186 19.5381 14.5095 19.3912 14.5576 19.2417C14.6056 19.0921 14.6986 18.9824 14.8366 18.9128C14.9746 18.8431 15.1196 18.8322 15.2714 18.8804L16.2464 19.2222C16.4734 19.2943 16.7273 19.3455 17.0081 19.3758C17.2888 19.406 17.6527 19.425 18.0997 19.4327H18.3003C18.3003 19.2471 18.2585 19.087 18.1749 18.9524C18.0912 18.8177 17.9811 18.7269 17.8445 18.6798L13.4932 17.0817C13.4787 17.0769 13.4654 17.0734 13.4534 17.071C13.4414 17.0685 13.4282 17.0673 13.4139 17.0673H12.0264V20.9328L17.4046 22.4515ZM17.1119 23.5534L12.0264 22.0953C11.9407 22.4058 11.7667 22.655 11.5042 22.843C11.2417 23.031 10.9638 23.125 10.6706 23.125H9.63218C9.2593 23.125 8.94012 22.9922 8.67462 22.7267C8.40912 22.4613 8.27637 22.1421 8.27637 21.7692V17.2981C8.27637 16.9253 8.40912 16.6062 8.67462 16.3407C8.94012 16.0752 9.2593 15.9424 9.63218 15.9424H13.4054C13.4841 15.9424 13.5637 15.9511 13.6445 15.9683C13.7254 15.9857 13.8004 16.0059 13.8695 16.0289L18.2397 17.6386C18.5801 17.7644 18.8628 17.9873 19.0878 18.307C19.3128 18.6267 19.4253 19.002 19.4253 19.4327H21.3003C21.8388 19.4327 22.2775 19.6066 22.6164 19.9542C22.9554 20.3017 23.1249 20.7529 23.1249 21.3078C23.1249 21.5203 23.0686 21.6914 22.9561 21.8211C22.8436 21.951 22.6734 22.0539 22.4456 22.1298L17.8951 23.5418C17.772 23.5822 17.6426 23.6036 17.507 23.6059C17.3715 23.6084 17.2398 23.5909 17.1119 23.5534ZM9.40137 21.7692C9.40137 21.8366 9.42299 21.8919 9.46624 21.9351C9.50949 21.9784 9.5648 22 9.63218 22H10.6706C10.7378 22 10.7931 21.982 10.8365 21.946C10.8797 21.9099 10.9014 21.8509 10.9014 21.7692V17.0673H9.63218C9.5648 17.0673 9.50949 17.0889 9.46624 17.1323C9.42299 17.1756 9.40137 17.2308 9.40137 17.2981V21.7692ZM18.8844 15.9841C18.7161 15.9841 18.5507 15.9533 18.3882 15.8918C18.2257 15.8303 18.0772 15.738 17.9427 15.6149L15.9162 13.6476C15.5576 13.3015 15.2559 12.9162 15.0112 12.4917C14.7664 12.0672 14.6441 11.6049 14.6441 11.1047C14.6441 10.4854 14.8609 9.95894 15.2945 9.52544C15.728 9.09181 16.2544 8.875 16.8738 8.875C17.2787 8.875 17.6525 8.97262 17.9952 9.16787C18.3381 9.363 18.6346 9.61156 18.8846 9.91356C19.1346 9.61156 19.4309 9.363 19.7737 9.16787C20.1164 8.97262 20.4902 8.875 20.8951 8.875C21.5145 8.875 22.0409 9.09181 22.4744 9.52544C22.9081 9.95894 23.1249 10.4854 23.1249 11.1047C23.1249 11.6049 23.0044 12.0672 22.7636 12.4917C22.5227 12.9162 22.2229 13.3015 21.8643 13.6476L19.8264 15.6149C19.6917 15.738 19.5431 15.8303 19.3805 15.8918C19.218 15.9533 19.0526 15.9841 18.8844 15.9841ZM19.0432 14.8015L21.0292 12.8746C21.2811 12.6274 21.5058 12.3587 21.7034 12.0683C21.9011 11.7779 21.9999 11.4567 21.9999 11.1047C21.9999 10.7961 21.8929 10.5349 21.6789 10.321C21.465 10.107 21.2037 10 20.8951 10C20.6576 10 20.4403 10.062 20.2432 10.186C20.0461 10.3101 19.872 10.4674 19.721 10.6578L19.3863 11.0616C19.2572 11.2174 19.0903 11.2953 18.8857 11.2953C18.6811 11.2953 18.5134 11.2174 18.3826 11.0616L18.0479 10.6578C17.8969 10.4674 17.7229 10.3101 17.5257 10.186C17.3287 10.062 17.1114 10 16.8738 10C16.5652 10 16.3039 10.107 16.0901 10.321C15.8761 10.5349 15.7691 10.7961 15.7691 11.1047C15.7691 11.4567 15.8679 11.7779 16.0655 12.0683C16.2631 12.3587 16.4879 12.6274 16.7397 12.8746L18.7257 14.8015C18.7691 14.8448 18.8221 14.8664 18.8846 14.8664C18.9471 14.8664 18.9999 14.8448 19.0432 14.8015Z" fill="#003366"/>
</g>
</svg>
