<svg width="24" height="24" viewBox="0 0 24 24" fill="none" xmlns="http://www.w3.org/2000/svg">
<mask id="mask0_3340_18392" style="mask-type:alpha" maskUnits="userSpaceOnUse" x="0" y="0" width="24" height="24">
<rect width="24" height="24" fill="#D9D9D9"/>
</mask>
<g mask="url(#mask0_3340_18392)">
<path d="M5.30775 20.5C4.80258 20.5 4.375 20.325 4.025 19.975C3.675 19.625 3.5 19.1974 3.5 18.6923V5.30775C3.5 4.80258 3.675 4.375 4.025 4.025C4.375 3.675 4.80258 3.5 5.30775 3.5H12.0577C12.2706 3.5 12.4487 3.57183 12.5922 3.7155C12.7359 3.859 12.8077 4.03717 12.8077 4.25C12.8077 4.46283 12.7359 4.641 12.5922 4.7845C12.4487 4.92817 12.2706 5 12.0577 5H5.30775C5.21792 5 5.14417 5.02883 5.0865 5.0865C5.02883 5.14417 5 5.21792 5 5.30775V18.6923C5 18.7821 5.02883 18.8558 5.0865 18.9135C5.14417 18.9712 5.21792 19 5.30775 19H18.6923C18.7821 19 18.8558 18.9712 18.9135 18.9135C18.9712 18.8558 19 18.7821 19 18.6923V11.9423C19 11.7294 19.0718 11.5513 19.2155 11.4078C19.359 11.2641 19.5372 11.1923 19.75 11.1923C19.9628 11.1923 20.141 11.2641 20.2845 11.4078C20.4282 11.5513 20.5 11.7294 20.5 11.9423V18.6923C20.5 19.1974 20.325 19.625 19.975 19.975C19.625 20.325 19.1974 20.5 18.6923 20.5H5.30775ZM6.38475 16.6923H17.6152L14.125 12.0385L11.125 15.9327L9 13.2308L6.38475 16.6923ZM17 7H15.75C15.5372 7 15.359 6.92817 15.2155 6.7845C15.0718 6.641 15 6.46283 15 6.25C15 6.03717 15.0718 5.859 15.2155 5.7155C15.359 5.57183 15.5372 5.5 15.75 5.5H17V4.25C17 4.03717 17.0718 3.859 17.2155 3.7155C17.359 3.57183 17.5372 3.5 17.75 3.5C17.9628 3.5 18.141 3.57183 18.2845 3.7155C18.4282 3.859 18.5 4.03717 18.5 4.25V5.5H19.75C19.9628 5.5 20.141 5.57183 20.2845 5.7155C20.4282 5.859 20.5 6.03717 20.5 6.25C20.5 6.46283 20.4282 6.641 20.2845 6.7845C20.141 6.92817 19.9628 7 19.75 7H18.5V8.25C18.5 8.46283 18.4282 8.641 18.2845 8.7845C18.141 8.92817 17.9628 9 17.75 9C17.5372 9 17.359 8.92817 17.2155 8.7845C17.0718 8.641 17 8.46283 17 8.25V7Z" fill="#6B7280"/>
</g>
</svg>
