<svg width="36" height="37" viewBox="0 0 36 37" fill="none" xmlns="http://www.w3.org/2000/svg">
<path d="M3 36.5C2.2 36.5 1.5 36.2 0.9 35.6C0.3 35 0 34.3 0 33.5V3.5C0 2.7 0.3 2 0.9 1.4C1.5 0.8 2.2 0.5 3 0.5H33C33.8 0.5 34.5 0.8 35.1 1.4C35.7 2 36 2.7 36 3.5V33.5C36 34.3 35.7 35 35.1 35.6C34.5 36.2 33.8 36.5 33 36.5H3ZM3 33.5H33V3.5H3V33.5ZM5.8 28.65H30.25L22.9 18.85L16.3 27.4L11.65 21.05L5.8 28.65ZM11.006 14C11.702 14 12.2917 13.7563 12.775 13.269C13.2583 12.7817 13.5 12.19 13.5 11.494C13.5 10.798 13.2563 10.2083 12.769 9.725C12.2817 9.24167 11.69 9 10.994 9C10.298 9 9.70833 9.24367 9.225 9.731C8.74167 10.2183 8.5 10.81 8.5 11.506C8.5 12.202 8.74367 12.7917 9.231 13.275C9.71833 13.7583 10.31 14 11.006 14Z" fill="#737373"/>
</svg>
