<svg width="49" height="48" viewBox="0 0 49 48" fill="none" xmlns="http://www.w3.org/2000/svg">
<mask id="mask0_182_4188" style="mask-type:alpha" maskUnits="userSpaceOnUse" x="0" y="0" width="49" height="48">
<rect x="0.5" width="48" height="48" fill="#D9D9D9"/>
</mask>
<g mask="url(#mask0_182_4188)">
<path d="M9.5 42C8.7 42 8 41.7 7.4 41.1C6.8 40.5 6.5 39.8 6.5 39V9C6.5 8.2 6.8 7.5 7.4 6.9C8 6.3 8.7 6 9.5 6H39.5C40.3 6 41 6.3 41.6 6.9C42.2 7.5 42.5 8.2 42.5 9V39C42.5 39.8 42.2 40.5 41.6 41.1C41 41.7 40.3 42 39.5 42H9.5ZM9.5 39H39.5V9H9.5V39ZM12.3 34.15H36.75L29.4 24.35L22.8 32.9L18.15 26.55L12.3 34.15ZM17.506 19.5C18.202 19.5 18.7917 19.2563 19.275 18.769C19.7583 18.2817 20 17.69 20 16.994C20 16.298 19.7563 15.7083 19.269 15.225C18.7817 14.7417 18.19 14.5 17.494 14.5C16.798 14.5 16.2083 14.7437 15.725 15.231C15.2417 15.7183 15 16.31 15 17.006C15 17.702 15.2437 18.2917 15.731 18.775C16.2183 19.2583 16.81 19.5 17.506 19.5Z" fill="#737373"/>
</g>
</svg>
