<svg width="24" height="24" viewBox="0 0 24 24" fill="none" xmlns="http://www.w3.org/2000/svg">
<path d="M2.25 23V19H22.25V23H2.25ZM6.25 15H7.65L15.45 7.225L14.025 5.8L6.25 13.6V15ZM4.25 17V12.75L15.45 1.575C15.6333 1.39167 15.8458 1.25 16.0875 1.15C16.3292 1.05 16.5833 1 16.85 1C17.1167 1 17.375 1.05 17.625 1.15C17.875 1.25 18.1 1.4 18.3 1.6L19.675 3C19.875 3.18333 20.0208 3.4 20.1125 3.65C20.2042 3.9 20.25 4.15833 20.25 4.425C20.25 4.675 20.2042 4.92083 20.1125 5.1625C20.0208 5.40417 19.875 5.625 19.675 5.825L8.5 17H4.25Z" fill="#ED8525"/>
</svg>
